<svg xmlns="http://www.w3.org/2000/svg" viewBox="0 0 183.7 76.67"><defs><style>.cls-1{fill:#fff;}</style></defs><title>Asset 1</title><g id="Layer_2" data-name="Layer 2"><g id="Layer_1-2" data-name="Layer 1"><path class="cls-1" d="M24.17,2.72H5.82A5.77,5.77,0,0,0,0,8.53V50.21A5.77,5.77,0,0,0,5.82,56a5.77,5.77,0,0,0,5.82-5.81V38.65h9.29L32.26,53A7,7,0,0,0,38,56a5.41,5.41,0,0,0,5.52-5.36,6.78,6.78,0,0,0-1.89-4.46l-8.08-9.81C40,33.75,44.12,28.61,44.12,20.31v-.15c0-5-1.59-9.14-4.53-12.08C36.11,4.61,30.9,2.72,24.17,2.72Zm8.16,18.2c0,4.45-3.25,7.47-8.91,7.47H11.63V13.21H23.19c5.67,0,9.14,2.57,9.14,7.55Zm33.84-6.57c-11.79,0-20,9.51-20,21.06v.15c0,12.38,9,20.91,21.15,20.91a21,21,0,0,0,14.05-4.9,4.51,4.51,0,0,0,1.51-3.4,4.39,4.39,0,0,0-4.46-4.53,4.28,4.28,0,0,0-2.79.91,13.27,13.27,0,0,1-8.16,2.72c-5.14,0-8.76-2.72-9.9-7.93H80.3a5.24,5.24,0,0,0,5.36-5.51C85.66,25.44,79.69,14.35,66.17,14.35ZM57.41,32.16c.91-5.21,4-8.61,8.76-8.61S74,27,74.71,32.16Zm63.83-17.52a5.56,5.56,0,0,0-5.36,3.93L107,42.2,98.35,18.72a5.54,5.54,0,0,0-5.59-4.08A5.64,5.64,0,0,0,87.17,20a7.6,7.6,0,0,0,.6,2.79l12.39,28.62c1.29,3,3.4,5,6.5,5h.61c3.09,0,5.21-2,6.5-5L126.15,22.8a8,8,0,0,0,.6-2.72A5.43,5.43,0,0,0,121.24,14.65Zm26.74-.3c-11.78,0-20,9.51-20,21.06v.15c0,12.38,9,20.91,21.15,20.91a21,21,0,0,0,14.05-4.9,4.51,4.51,0,0,0,1.51-3.4,4.39,4.39,0,0,0-4.46-4.53,4.29,4.29,0,0,0-2.8.91,13.27,13.27,0,0,1-8.16,2.72c-5.14,0-8.76-2.72-9.9-7.93H162.1a5.24,5.24,0,0,0,5.37-5.51C167.47,25.44,161.5,14.35,148,14.35Zm-8.76,17.82c.91-5.21,4-8.61,8.76-8.61s7.86,3.47,8.54,8.61ZM178,0a5.73,5.73,0,0,0-5.74,5.74V50.28a5.74,5.74,0,0,0,11.48,0V5.74A5.74,5.74,0,0,0,178,0Z"/><path class="cls-1" d="M107.65,75.62a.9.9,0,0,1-.36-.73.89.89,0,0,1,.9-.89.92.92,0,0,1,.55.18A3.71,3.71,0,0,0,111,75c.79,0,1.26-.31,1.26-.82v0c0-.49-.3-.74-1.76-1.11-1.77-.45-2.91-.94-2.91-2.68v0c0-1.59,1.28-2.64,3.07-2.64a5.08,5.08,0,0,1,2.78.78.88.88,0,0,1,.43.76.89.89,0,0,1-.9.89.92.92,0,0,1-.49-.14,3.64,3.64,0,0,0-1.84-.59c-.74,0-1.13.34-1.13.76v0c0,.58.37.76,1.89,1.15,1.78.46,2.78,1.1,2.78,2.63v0c0,1.74-1.33,2.71-3.22,2.71A5.65,5.65,0,0,1,107.65,75.62Z"/><path class="cls-1" d="M120.88,73.17l-2.83-3.84a1.14,1.14,0,0,1-.24-.69.94.94,0,0,1,1-.93,1.11,1.11,0,0,1,1,.59l2.13,3.07L124,68.28a1.11,1.11,0,0,1,.93-.57.89.89,0,0,1,.94.94,1.19,1.19,0,0,1-.25.67l-2.83,3.82v2.52a1,1,0,1,1-1.93,0Z"/><path class="cls-1" d="M129.78,75.62a.9.9,0,0,1-.36-.73.89.89,0,0,1,.9-.89.92.92,0,0,1,.55.18,3.71,3.71,0,0,0,2.24.79c.79,0,1.26-.31,1.26-.82v0c0-.49-.3-.74-1.77-1.11-1.77-.45-2.9-.94-2.9-2.68v0c0-1.59,1.28-2.64,3.07-2.64a5.07,5.07,0,0,1,2.78.78.88.88,0,0,1,.43.76.89.89,0,0,1-.9.89.91.91,0,0,1-.49-.14,3.65,3.65,0,0,0-1.84-.59c-.74,0-1.13.34-1.13.76v0c0,.58.37.76,1.89,1.15,1.78.46,2.78,1.1,2.78,2.63v0c0,1.74-1.33,2.71-3.22,2.71A5.66,5.66,0,0,1,129.78,75.62Z"/><path class="cls-1" d="M142.82,69.57H141a.89.89,0,0,1,0-1.78h5.63a.89.89,0,0,1,0,1.78h-1.85v6.09a1,1,0,1,1-1.93,0Z"/><path class="cls-1" d="M151.89,75.58V68.75a1,1,0,0,1,1-1h4.86a.87.87,0,0,1,.86.86.85.85,0,0,1-.86.85h-3.91v1.78h3.34a.87.87,0,0,1,.86.86.85.85,0,0,1-.86.85h-3.34v1.84h4a.86.86,0,0,1,.86.86.85.85,0,0,1-.86.85h-4.92A1,1,0,0,1,151.89,75.58Z"/><path class="cls-1" d="M163.28,68.7a1,1,0,0,1,1-1h.21a1,1,0,0,1,.88.5L167.66,72l2.34-3.8a.94.94,0,0,1,.86-.49h.21a1,1,0,0,1,1,1v7a1,1,0,1,1-1.92,0V71.29l-1.69,2.6a.9.9,0,0,1-1.6,0l-1.66-2.57v4.35a.94.94,0,0,1-1,.94.93.93,0,0,1-.94-.94Z"/><path class="cls-1" d="M177,75.62a.9.9,0,0,1-.36-.73.89.89,0,0,1,.9-.89.92.92,0,0,1,.55.18,3.71,3.71,0,0,0,2.24.79c.79,0,1.26-.31,1.26-.82v0c0-.49-.3-.74-1.76-1.11-1.77-.45-2.9-.94-2.9-2.68v0c0-1.59,1.28-2.64,3.07-2.64a5.07,5.07,0,0,1,2.78.78.88.88,0,0,1,.43.76.89.89,0,0,1-.9.89.92.92,0,0,1-.49-.14,3.65,3.65,0,0,0-1.84-.59c-.74,0-1.13.34-1.13.76v0c0,.58.37.76,1.89,1.15,1.78.46,2.78,1.1,2.78,2.63v0c0,1.74-1.33,2.71-3.22,2.71A5.65,5.65,0,0,1,177,75.62Z"/></g></g></svg>